<?xml version="1.0" encoding="utf-8"?>
<svg viewBox="0 0 24 24" xmlns="http://www.w3.org/2000/svg">
    <style type="text/css">
        .st0 {
            fill: #231F20;
        }

        .st1 {
            fill: #818CF8;
        }
    </style>
    <!-- Gear icon: backend/settings -->
    <path class="st0"
        d="M19.4,13c0-0.3,0.1-0.6,0.1-1s0-0.7-0.1-1l2.1-1.6c0.2-0.2,0.3-0.4,0.2-0.7l-2-3.5c-0.1-0.2-0.4-0.3-0.7-0.2l-2.5,1 c-0.5-0.4-1.1-0.7-1.7-1l-0.4-2.6c0-0.2-0.3-0.4-0.5-0.4h-4c-0.3,0-0.5,0.2-0.5,0.4L9,5.1C8.4,5.3,7.8,5.6,7.3,6L4.8,5 C4.6,4.9,4.3,5,4.2,5.2l-2,3.5C2.1,8.9,2.2,9.2,2.4,9.4L4.5,11c0,0.3-0.1,0.6-0.1,1s0,0.7,0.1,1l-2.1,1.6c-0.2,0.2-0.3,0.4-0.2,0.7 l2,3.5C4.3,19,4.6,19.1,4.8,19l2.5-1c0.5,0.4,1.1,0.7,1.7,1l0.4,2.6c0,0.2,0.3,0.4,0.5,0.4h4c0.3,0,0.5-0.2,0.5-0.4l0.4-2.6 c0.6-0.2,1.2-0.5,1.7-1l2.5,1c0.2,0.1,0.5,0,0.6-0.2l2-3.5c0.1-0.2,0-0.5-0.2-0.7L19.4,13z" />
    <circle class="st1" cx="12" cy="12" r="3.5" />
</svg>