<?xml version="1.0" encoding="utf-8"?>
<svg viewBox="0 0 24 24" xmlns="http://www.w3.org/2000/svg">
    <style type="text/css">
        .st0 {
            fill: #231F20;
        }

        .st1 {
            fill: #818CF8;
        }
    </style>
    <!-- Clipboard icon: business analyst/documentation -->
    <path class="st0" d="M16,2H8C6.9,2,6,2.9,6,4v16c0,1.1,0.9,2,2,2h8c1.1,0,2-0.9,2-2V4C18,2.9,17.1,2,16,2z" />
    <rect class="st1" x="9" y="7" width="6" height="1.5" />
    <rect class="st1" x="9" y="10" width="6" height="1.5" />
    <rect class="st1" x="9" y="13" width="4" height="1.5" />
    <path class="st0" d="M14,4h-4C9.4,4,9,4.4,9,5v0c0,0.6,0.4,1,1,1h4c0.6,0,1-0.4,1-1v0C15,4.4,14.6,4,14,4z" />
</svg>