<?xml version="1.0" encoding="utf-8"?>
<svg viewBox="0 0 24 24" xmlns="http://www.w3.org/2000/svg">
    <style type="text/css">
        .st0 {
            fill: #231F20;
        }

        .st1 {
            fill: #818CF8;
        }
    </style>
    <!-- Calendar/schedule icon -->
    <path class="st0"
        d="M19,3h-1V1h-2v2H8V1H6v2H5C3.9,3,3,3.9,3,5v14c0,1.1,0.9,2,2,2h14c1.1,0,2-0.9,2-2V5C21,3.9,20.1,3,19,3z" />
    <rect class="st1" x="5" y="8" width="14" height="2" />
    <rect class="st1" x="7" y="12" width="2" height="2" />
    <rect class="st1" x="11" y="12" width="2" height="2" />
    <rect class="st1" x="15" y="12" width="2" height="2" />
    <rect class="st1" x="7" y="16" width="2" height="2" />
    <rect class="st1" x="11" y="16" width="2" height="2" />
</svg>