<?xml version="1.0" encoding="utf-8"?>
<svg viewBox="0 0 24 24" xmlns="http://www.w3.org/2000/svg">
    <style type="text/css">
        .st0 {
            fill: #FFFFFF;
        }

        .st1 {
            fill: #818CF8;
        }
    </style>
    <!-- Rocket/launch icon -->
    <path class="st0" d="M9,14c0,0-2,2-2,4c0,1.1,0.9,2,2,2s2-0.9,2-2C11,16,9,14,9,14z" />
    <path class="st1" d="M12,2S6,8,6,13c0,3.3,2.7,6,6,6s6-2.7,6-6C18,8,12,2,12,2z" />
    <circle class="st0" cx="12" cy="10" r="2" />
    <path class="st0" d="M2,14l4,2c0,0,0-2,2-4L4,10L2,14z" />
    <path class="st0" d="M18,12c2,2,2,4,2,4l4-2l-2-4L18,12z" />
</svg>