<?xml version="1.0" encoding="utf-8"?>
<svg viewBox="0 0 24 24" xmlns="http://www.w3.org/2000/svg">
    <style type="text/css">
        .st0 {
            fill: #231F20;
        }

        .st1 {
            fill: #818CF8;
        }
    </style>
    <!-- Sync/refresh icon -->
    <path class="st1"
        d="M12,4V1L8,5l4,4V6c3.3,0,6,2.7,6,6c0,1-0.3,2-0.8,2.8l1.5,1.5C19.5,15.1,20,13.6,20,12C20,7.6,16.4,4,12,4z" />
    <path class="st1"
        d="M12,18c-3.3,0-6-2.7-6-6c0-1,0.3-2,0.8-2.8L5.3,7.7C4.5,8.9,4,10.4,4,12c0,4.4,3.6,8,8,8v3l4-4l-4-4V18z" />
</svg>