<?xml version="1.0" encoding="utf-8"?>
<svg viewBox="0 0 24 24" xmlns="http://www.w3.org/2000/svg">
    <style type="text/css">
        .st0 {
            fill: #FFFFFF;
        }

        .st1 {
            fill: #818CF8;
        }
    </style>
    <!-- Lock icon: authentication -->
    <path class="st0"
        d="M18,10h-1V7c0-2.8-2.2-5-5-5S7,4.2,7,7v3H6c-1.1,0-2,0.9-2,2v8c0,1.1,0.9,2,2,2h12c1.1,0,2-0.9,2-2v-8 C20,10.9,19.1,10,18,10z M9,7c0-1.7,1.3-3,3-3s3,1.3,3,3v3H9V7z" />
    <circle class="st1" cx="12" cy="16" r="2" />
</svg>