<?xml version="1.0" encoding="utf-8"?>
<svg viewBox="0 0 24 24" xmlns="http://www.w3.org/2000/svg">
    <style type="text/css">
        .st0 {
            fill: #231F20;
        }

        .st1 {
            fill: #818CF8;
        }
    </style>
    <!-- Enterprise building icon -->
    <path class="st0" d="M20,4H4C2.9,4,2,4.9,2,6v12c0,1.1,0.9,2,2,2h16c1.1,0,2-0.9,2-2V6C22,4.9,21.1,4,20,4z" />
    <rect class="st1" x="5" y="7" width="2.5" height="2.5" />
    <rect class="st1" x="9" y="7" width="2.5" height="2.5" />
    <rect class="st1" x="13" y="7" width="2.5" height="2.5" />
    <rect class="st1" x="17" y="7" width="2.5" height="2.5" />
    <rect class="st1" x="5" y="11" width="2.5" height="2.5" />
    <rect class="st1" x="9" y="11" width="2.5" height="2.5" />
    <rect class="st1" x="13" y="11" width="2.5" height="2.5" />
    <rect class="st1" x="17" y="11" width="2.5" height="2.5" />
    <rect class="st1" x="9" y="16" width="6" height="2" />
</svg>