<?xml version="1.0" encoding="utf-8"?>
<!-- Generator: Adobe Illustrator 21.0.2, SVG Export Plug-In . SVG Version: 6.00 Build 0)  -->
<svg version="1.1" id="Layer_1" xmlns="http://www.w3.org/2000/svg" xmlns:xlink="http://www.w3.org/1999/xlink" x="0px"
	y="0px" viewBox="0 0 850 126.9" xml:space="preserve">
	<style type="text/css">
		.st0 {
			fill: #231F20;
		}

		.st1 {
			fill: #818CF8;
		}
	</style>
	<path class="st0" d="M56,116.4c-7.5,0.1-15,0.2-22.4,0.1c-1.2,0-2.9-0.9-3.5-1.9c-7.9-13.5-15.5-27.1-23.3-40.6
	c-1.8-3.2-4.1-6.2-6.4-9.4C0,63.9,0,63.1,0,62c4.1-7,8.4-13.6,12.4-20.3c5.9-9.8,11.6-19.8,17.5-29.5c0.7-1.2,2.7-2.4,4.1-2.4
	c19-0.2,38-0.1,57,0c1.1,0,2.6,0.5,3.1,1.3c4.4,7.3,8.6,14.8,12.8,22.2C100,36.9,93.1,35,90,28.4c-2.3-4.9-5.1-7.3-11.2-7
	c-12.3,0.6-24.6,0.1-37,0.3c-1.6,0-4,0.8-4.8,2.1c-6.6,11.1-12.7,22.4-19.4,33.4c-2.7,4.5-2.4,7.8,0.4,12.2
	c7.1,11.3,13.5,23.1,20.5,35.3c7.5-0.9,15.1-0.9,17.4,9.8C56,115.6,56,116,56,116.4z" />
	<path class="st1" d="M409.6,27.7c6.4,2.5,12.4,5,18.3,7.4c0.1-1.5,0.2-3.7,0.4-6.2c5.2,0,10.1,0,15.4,0c0.1,1.5,0.3,2.9,0.3,4.4
	c0,20,0.4,40-0.2,60c-0.2,6.5-2.4,13.4-5.4,19.2c-4.8,9.1-13.9,13-23.7,14.1c-12.8,1.4-25.1-0.7-35.5-9.8c0.7-1.2,1.5-2.6,2.3-4
	c4.3-7.8,4.2-7.5,12.2-3.4c12.1,6.2,28,4.6,33.1-7.7c1.8-4.2,1.2-9.4,1.9-15.2c-3.1,2.3-5.1,4.2-7.4,5.5
	c-21,11.4-45.9-2.7-46.2-27.6c-0.1-9.4,1.1-18.1,7.4-25.5C389.3,30.6,398.5,27.3,409.6,27.7 M427,68.8c0.3-3.1,0.7-6.2,0.9-9.3
	c0.7-8.9-8.6-19-19-18.9c-8.9,0.1-16.7,6.5-18.7,16.6c-2,10.1,3.4,21.5,14.1,24C412.4,83,421.3,81.3,427,68.8z" />
	<path class="st1" d="M746,70.6c-10.5,0-20.4,0-30.7,0c0.8,7.4,5.4,11.5,11.3,13.9c10.9,4.5,20.6,2,29.1-5.8c0.4,0.1,0.8,0.1,1,0.2
	c9.7,8.5,9.4,11-2.1,16.7c-15.4,7.6-33,6.2-45.2-5.8c-4.1-4-7-10.2-8.3-15.8c-3-12.8-2-25.6,7.8-35.5c8.4-8.6,19.1-12.3,31.5-10.4
	c8.1,1.2,15.1,4.2,20.9,10.1c5.3,5.4,7.8,11.7,7.8,19.1c0,4.1,0,8.3,0,13.2C761.3,70.6,753.9,70.6,746,70.6 M726.6,43.4
	c-6.5,2.8-10.6,7.4-11.5,14.7c13.1,0,25.9,0,39.8,0c-1.8-3.8-2.8-7.2-4.8-9.8C744,40.5,735.9,40.3,726.6,43.4z" />
	<path class="st1" d="M488.9,28.5c17.6-4.1,41,8.6,40.1,29.1c-0.2,4.1,0,8.3,0,12.9c-18.2,0-35.9,0-53.7,0
	c3.6,17.3,25.3,21.5,40.9,7.7c2.4,2.8,5,5.5,7.1,8.5c0.5,0.8-0.2,3.3-1.1,4.1c-5.8,4.9-12.4,7.8-20,8.9c-9.2,1.3-18,0.4-26.1-4.5
	c-9.8-6.1-15.6-14.8-16.1-26.6c-0.5-10.2,0.2-20,7.6-28.3C473.3,33.8,480,29.6,488.9,28.5 M506.9,45c-10.1-8.3-31.6-1.5-31.5,13.2
	c12.8,0,25.6,0,38.4,0c0.4-0.4,0.8-0.8,1.2-1.3C512.5,53.1,510,49.4,506.9,45z" />
	<path class="st1" d="M845,88.7c-6,6.6-13.7,9.8-22.5,11c-8.9,1.2-17.3,0.3-25.1-4.3c-10.1-6.1-15.8-14.9-16.5-26.9
	c-0.5-10.4,0.4-20.4,7.9-28.7c8.5-9.4,19.2-13.1,31.4-11.9c8.1,0.8,15.5,3.8,21.5,9.9c5.6,5.6,8.3,12.1,8.2,19.9
	c-0.1,3.7,0,7.3-0.3,11.5c-0.5,0.7-0.6,0.9-0.7,1.2c-17.5,0-35.1,0-52.8,0c4,17.7,23.3,21.3,41.3,7.9c2.4,2.8,4.8,5.7,7.3,9.1
	C845,88.3,845,88.5,845,88.7 M804.6,58.6c10.1,0,20.1,0,30.1,0c0.1-10.7-10.1-17.9-19.5-17.1c-9.6,0.8-17.7,7.2-19,17.1
	C798.7,58.6,801.2,58.6,804.6,58.6z" />
	<path class="st1" d="M310.8,98c-14.8-4.9-17.8-24.3-9.6-33.8c4.7-5.5,11.8-7.2,18.8-7.5c7.8-0.4,15.6-0.1,23.3-0.1
	c1.4-9.2-5.9-17.2-14.8-15.8c-5.6,0.9-11.2,2.8-16.2,5.5c-3.1,1.7-4.6,0.9-6.2-1.2c-1.6-2.1-2.8-4.4-4.3-6.7
	c5.4-5.2,11.7-7.8,18.5-9.4c10.2-2.4,19.9-1.8,29,3.7c6,3.7,9.5,9.4,9.6,16.3c0.4,16.3,0.1,32.6,0.1,49.2c-4.7,0-9.1,0-13.7,0
	c-0.2-1.8-0.4-3.5-0.7-6.1C334.2,100.1,323.1,102.5,310.8,98 M334.5,67.6c-5.4,0.4-11,0.1-16.2,1.5c-6.9,2-7.5,9.6-3.5,13.8
	c3.9,4.1,14.6,5.2,20.1,2.2c6.8-3.7,9.8-9.7,8.3-17.5C340.7,67.6,338.1,67.6,334.5,67.6z" />
	<path class="st0" d="M143.9,99.6c-11.6-0.4-20.6-10.2-21.1-20.6c-0.8-16.6,10.5-21.1,22.9-22.3c7.9-0.8,15.9-0.1,23.9-0.1
	c0.4-10.4-5.7-17.4-17.5-14.9c-5.1,1.1-9.9,3.5-14.9,5.1c-1.2,0.4-3.3,0.1-4.1-0.7c-2.1-2.2-3.6-4.9-5.5-7.5
	c5.4-5.8,12.2-8.3,19.3-9.9c7.8-1.7,15.7-1.6,23.4,1.5c8.6,3.5,14.1,9.5,14.4,18.5c0.7,16.4,0.2,32.9,0.2,49.6c-4.7,0-9.1,0-13.9,0
	c0-1.8,0-3.6,0-6.6C162.7,98.1,154.2,101.7,143.9,99.6 M145,85.6c14.4,4.3,26.7-3.8,24.4-18c-6.6,0-13.2-0.1-19.8,0
	c-5.8,0.2-9.9,3.1-10.9,7.8C137.7,80.1,140.1,83.3,145,85.6z" />
	<path class="st1"
		d="M578.8,28.2c20-1.4,29.9,7.8,31,25.1c0.9,13.4,0.2,27,0.2,40.5c0,1.3,0,2.6,0,4.4c-5.3,0-10.3,0-16,0
	c0-13,0-25.9,0-38.8c0-1.8,0.1-3.7-0.4-5.4c-1.9-7.6-8.5-12.7-15.3-12c-10.2,1-17.3,7.6-17.3,16.3c-0.1,11.5,0,23,0,34.5
	c0,1.8,0,3.6,0,5.7c-5.4,0-10.3,0-15.6,0c0-23.1,0-46.1,0-69.4c5.1,0,10,0,15.4,0c0,3,0,5.9,0,8C566.7,34,572.5,31.2,578.8,28.2z" />
	<path class="st1" d="M681.1,77.6c3,2.8,6,5.7,9.3,8.8c-5.5,6.5-12.1,10.5-20,12.4c-10.5,2.6-20.6,1.8-29.7-4.2
	c-9.6-6.3-15.2-15-15.9-27c-0.6-10.9,1.3-20.5,9.1-28.4c14.1-14.3,38.4-15.4,53.5-2.4c0.8,0.7,1.2,3.1,0.6,4c-2.3,3.4-5,6.5-7.8,9.9
	c-5.6-4.8-11.4-8.5-19.1-8.3c-11.7,0.3-21.2,9.6-21.2,21.1c0,11.5,10.1,21.7,21.2,22c7.4,0.2,13-2.9,18.7-7.9
	C680.7,77.6,680.9,77.6,681.1,77.6z" />
	<path class="st1" d="M92,40.7c3,3.1,2.2,6,0.5,8.9c-6.4,11.1-12.9,22.2-19.3,33.3c-2.3,4-4.7,7.9-6.8,12c-1.4,2.7-3.2,3.9-6.3,3.8
	c-5.2-0.2-10.3-0.4-15.5,0c-3.9,0.3-6.1-1-7.5-4.5c-0.9-2.4-2.5-4.5-4.2-7.6c7.2,0,13.6-0.1,20,0.1c2.8,0.1,4.4-0.7,5.9-3.3
	c6.7-11.9,13.7-23.6,20.3-35.5c0.7-1.2,0.7-3.3,0.1-4.5c-2.1-4.1-4.6-8-6.8-12c-0.7-1.2-1-2.6-1.8-4.6c4.4,0,8-0.3,11.6,0.1
	c1.3,0.1,2.9,1.5,3.7,2.8C88.1,33,89.9,36.7,92,40.7z" />
	<path class="st0" d="M207.2,98.6c-1.1-1.1-2.1-2.2-2.1-3.3c-0.1-22-0.1-44-0.1-66.3c5.1,0,10.2,0,15.6,0c0,22.8,0,45.9,0,69.6
	C216.5,98.6,212.1,98.6,207.2,98.6z" />
	<path class="st0" d="M37.7,62.3c-5.5,6.2,1.9,9.5,2.7,14.2c0.2,1.1,1.2,2.1,2,3.3c-8.8,2.1-10.3,0.8-14.6-5.7
	c-3.9-5.9-2.6-9.8,0.9-15.2c6.2-9.4,11.3-19.5,16.8-29.3c0.3-0.6,0.4-1.3,0.8-1.8c2.1-2.4,18-1.4,19.7,1.3c1.4,2.2,2.7,4.6,4.5,7.5
	c-5,0-9.2,0.4-13.3-0.1c-4.2-0.5-6,1.5-7.8,4.9C45.9,48.4,41.9,55.1,37.7,62.3z" />
	<path class="st0" d="M252,52.6c10.5,0,20.4,0,30.7,0c0,5,0,9.7,0,14.7c-14.3,0-28.7,0-43.4,0c0-4.7,0-9.4,0-14.7C243.3,52.6,247.4,52.6,252,52.6
	z" />
	<path class="st0" d="M217,0.1c4.9,3.1,6.8,7.2,5.4,11.5c-1.7,5.3-4.7,7.2-10.7,6.9c-5-0.2-7.4-3.5-8.7-7.8C202,7,204.5,2,208.6,0.6
	C211.1-0.3,214,0,217,0.1z" />
	<path class="st0" d="M56.3,116.5c-0.3-0.4-0.3-0.9-0.3-1.6C56.2,115.2,56.4,115.8,56.3,116.5z" />
	<path class="st1" d="M681,77.4c-0.1,0.2-0.3,0.2-0.8,0.2C680.2,77.4,680.6,77.3,681,77.4z" />
	<path class="st1" d="M849.3,70.4c-0.1-0.3,0-0.5,0.4-0.7C849.9,70,849.8,70.3,849.3,70.4z" />
	<path class="st1" d="M845.3,88.6c-0.2-0.1-0.2-0.3-0.2-0.8C845.2,87.8,845.3,88.2,845.3,88.6z" />
</svg>