<?xml version="1.0" encoding="utf-8"?>
<!-- Generator: Adobe Illustrator 21.0.2, SVG Export Plug-In . SVG Version: 6.00 Build 0)  -->
<svg version="1.1" id="Layer_1" xmlns="http://www.w3.org/2000/svg" xmlns:xlink="http://www.w3.org/1999/xlink" x="0px"
	y="0px" viewBox="0 0 852 126.5" xml:space="preserve">
	<style type="text/css">
		.st0 {
			fill: #818CF8;
		}

		.st1 {
			fill: #FFFFFF;
		}

		.st2 {
			fill: #231F20;
		}
	</style>
	<path class="st0" d="M430,92.5c0-2.1,0-3.7,0-6.1c-2.4,1.9-4,3.7-6.1,4.9c-10.6,6-21.6,6.1-32-0.1c-10-5.9-14.4-15.3-14.9-26.8
	c-0.4-9.7,1.1-18.8,7.8-26.3c10.3-11.8,29.1-15.1,43.1-3.5c0.5,0.4,1,0.8,2,1.6c0.2-2.7,0.3-5,0.4-7.5c5.1,0,10.2,0,15.5,0
	c0.1,1.7,0.2,3.1,0.2,4.6c0,19.8,0.4,39.7-0.2,59.5c-0.2,6.5-2.3,13.4-5.3,19.2c-4.6,9-13.6,13.2-23.1,14.2
	c-13,1.3-23.6,0.8-36.1-9.6c0-0.2-0.1-0.4,0-0.5c2.2-3.3,3.7-7.5,6.7-9.6c4.1-2.8,6.5,3,10.1,4c10,2.9,19.4,3.8,27.7-4.2
	C429.5,102.4,430.4,97.9,430,92.5 M429.2,67.7c0-4.7,1.1-9.8-0.3-14c-3.1-9.1-10.4-13.7-18.7-13.4c-8.4,0.3-14.2,5.3-17.3,15.1
	c-3.2,9.8,2.4,21.7,11.5,24.9C413.2,83.3,424.8,80.3,429.2,67.7z" />
	<path class="st0"
		d="M810.1,84.4c11.1,4.3,20.4,1.4,29.2-6.4c2.8,3.2,5.6,6.3,8.5,9.7c-5.3,6.7-12.6,9.9-20.2,11.4
	c-9.6,1.9-19.3,1.4-28.1-4c-10.1-6.2-15.9-15-16.5-26.9c-0.5-10.2,0.3-20,7.6-28.3c8.4-9.6,19.1-13.3,31.3-12.3
	c8.8,0.7,16.8,4.2,23.1,11.1c4.4,4.9,6.8,10.5,7,16.9c0.2,4.6,0,9.3,0,14.5c-18.1,0-35.8,0-53.8,0C799.2,77.7,803.8,81.5,810.1,84.4
	 M830.4,45.2c-6.3-5.3-13.4-5.1-20.5-2.3c-6.6,2.6-11.1,7.3-11.9,15.1c13.1,0,25.8,0,40.5,0C835.6,53.2,833.3,49.5,830.4,45.2z" />
	<path class="st0" d="M465.2,80.9c-5.7-11.7-5.4-32.2,5.8-42.9c8.7-8.3,19.2-11.9,31.6-10c11.9,1.8,21.6,6.9,25.8,18
	c2.8,7.2,2.4,15.7,3.4,24.2c-19.1,0-36.7,0-54.6,0c0.6,7.4,5.2,11.5,10.8,13.9c10.9,4.6,21,2.5,29.6-5.6c0.4,0.1,0.8,0,1,0.2
	c9.7,8.5,9.4,11.1-2.1,16.7c-15.4,7.6-32.8,5.9-45.4-5.6C468.7,87.5,467.3,84.1,465.2,80.9 M482.7,58.3c11,0,22,0,33.1,0
	c-0.3-11.4-10.3-18.2-20.7-17.1c-7.8,0.9-18,7.5-17.7,17.1C478.8,58.3,480.3,58.3,482.7,58.3z" />
	<path class="st0" d="M729.8,84.7c10.9,3.3,17.2,1.9,28.2-6.2c0.3,0.1,0.7,0.2,0.9,0.4c9.4,8.2,9.1,11-2.1,16.5
	c-15.1,7.4-32.9,6.6-45.2-5.6c-4.6-4.6-8.1-11.6-9.2-18.1c-1.9-11.7-1-23.7,8-33c8.4-8.7,18.9-12.5,30.9-11.1
	c8.3,0.9,15.8,4,21.9,10.3c5.2,5.4,7.9,11.6,7.8,19.1c0,4.2,0,8.3,0,13.1c-17.9,0-35.6,0-53.8,0C718.3,78,723,82,729.8,84.7
	 M748.4,58.3c2.4,0,4.9,0,7.3,0c0.1-10.7-9.5-18.4-20.8-17c-7.9,0.9-18.2,8-17.3,16.7c0.3,0.1,0.6,0.3,0.9,0.3
	C728.1,58.2,737.8,58.3,748.4,58.3z" />
	<path class="st0" d="M323,42.2c-3,1.1-5.7,1.9-8.2,3.2c-4.5,2.3-5.7,1.8-9.5-4.3c-2.3-3.6,0.1-4.8,2.6-6.3
	c14.1-8.3,28.5-10.6,43.4-2.2c6,3.4,9.3,9.2,9.5,15.8c0.4,16.4,0.1,32.9,0.1,49.6c-4.8,0-9.2,0-13.7,0c-0.2-1.9-0.3-3.5-0.5-6
	c-1.7,0.9-3.2,1.5-4.3,2.5c-7.4,6.6-25.4,7.3-34.3,1c-9.8-6.9-13-21.9-5.4-31.1c4.8-5.9,12.2-7.7,19.6-8c7.8-0.3,15.6-0.1,23.3-0.1
	c0.3-10.6-5.9-17-17.4-15.1C326.6,41.4,325,41.8,323,42.2 M337.3,84.4c6.8-3.6,8.8-9.5,8.4-17.1c-7.3,0-14.2-0.3-21.1,0.1
	c-5.8,0.4-10.3,4.7-10.4,8.8c-0.1,5.1,4.4,9.6,10.9,9.9C328.9,86.3,332.8,85.4,337.3,84.4z" />
	<path class="st0" d="M563,96c-0.7,1.1-1.3,2.1-1.9,2.2c-4.5,0.2-8.9,0.1-13.7,0.1c0-23.3,0-46.2,0-69.5c5,0,10,0,15.4,0
	c0.2,2.7,0.3,5.4,0.6,9.2c1.8-1.6,3-2.5,4.1-3.6c8.1-7.4,17.4-8.4,27.6-5.2c9.5,3,15.4,9.6,15.8,19.3c0.7,16.4,0.2,32.8,0.2,49.5
	c-4.3,0-9.3,0-15,0c0-1.7,0-3.4,0-5.1c0-11.7,0-23.3,0-35c0-8.5-4.5-16.2-14.9-16.1c-10.6,0.1-17.9,6.6-18.1,16.3
	C562.8,70.5,563,83,563,96z" />
	<path class="st0" d="M683.1,77.2c3,2.8,6,5.7,9.3,8.8c-5.5,6.5-12.1,10.5-20,12.4c-10.5,2.6-20.6,1.8-29.7-4.2
	c-9.6-6.3-15.2-15-15.9-27c-0.6-10.9,1.3-20.5,9.1-28.4c14.1-14.3,38.4-15.4,53.5-2.4c0.8,0.7,1.2,3.1,0.6,4c-2.3,3.4-5,6.5-7.8,9.9
	c-5.6-4.8-11.4-8.5-19.1-8.3c-11.7,0.3-21.2,9.6-21.2,21.1c0,11.5,10.1,21.7,21.2,22c7.4,0.2,13-2.9,18.7-7.9
	C682.7,77.3,682.9,77.3,683.1,77.2z" />
	<path class="st0" d="M95.7,43.8c-1,3.4-1.7,6.6-3.3,9.4c-8,14-16.3,27.8-24.2,41.8c-1.3,2.3-2.5,3.4-5.2,3.3
	c-5.2-0.2-10.4-0.5-15.5,0c-5,0.5-7.6-1.7-9.4-5.9c-0.8-1.8-1.9-3.5-3.4-6.3c5.8,0,11.2-0.4,16.5,0.1c5.4,0.5,8.8-1.2,11.4-6.1
	C68.4,69.5,74.9,59,80.8,48.2c0.9-1.7,0.5-4.8-0.5-6.8c-2.2-4.5-5-8.7-8.2-14.1c5.1,0,9-0.1,12.9,0.1c0.9,0,1.9,1.1,2.4,1.9
	C90.2,34,92.9,38.7,95.7,43.8z" />
	<path class="st0" d="M683,77c-0.1,0.2-0.3,0.2-0.8,0.2C682.2,77.1,682.5,77,683,77z" />
	<path class="st1" d="M56,116.4c-7.5,0.1-15,0.2-22.4,0.1c-1.2,0-2.9-0.9-3.5-1.9c-7.9-13.5-15.5-27.1-23.3-40.6
	c-1.8-3.2-4.1-6.2-6.4-9.4C0,63.9,0,63.1,0,62c4.1-7,8.4-13.6,12.4-20.3c5.9-9.8,11.6-19.8,17.5-29.5c0.7-1.2,2.7-2.4,4.1-2.4
	c19-0.2,38-0.1,57,0c1.1,0,2.6,0.5,3.1,1.3c4.4,7.3,8.6,14.8,12.8,22.2C100,36.9,93.1,35,90,28.4c-2.3-4.9-5.1-7.3-11.2-7
	c-12.3,0.6-24.6,0.1-37,0.3c-1.6,0-4,0.8-4.8,2.1c-6.6,11.1-12.7,22.4-19.4,33.4c-2.7,4.5-2.4,7.8,0.4,12.2
	c7.1,11.3,13.5,23.1,20.5,35.3c7.5-0.9,15.1-0.9,17.4,9.8C56,115.6,56,116,56,116.4z" />
	<path class="st1" d="M143.9,99.6c-11.6-0.4-20.6-10.2-21.1-20.6c-0.8-16.6,10.5-21.1,22.9-22.3c7.9-0.8,15.9-0.1,23.9-0.1
	c0.4-10.4-5.7-17.4-17.5-14.9c-5.1,1.1-9.9,3.5-14.9,5.1c-1.2,0.4-3.3,0.1-4.1-0.7c-2.1-2.2-3.6-4.9-5.5-7.5
	c5.4-5.8,12.2-8.3,19.3-9.9c7.8-1.7,15.7-1.6,23.4,1.5c8.6,3.5,14.1,9.5,14.4,18.5c0.7,16.4,0.2,32.9,0.2,49.6c-4.7,0-9.1,0-13.9,0
	c0-1.8,0-3.6,0-6.6C162.7,98.1,154.2,101.7,143.9,99.6 M145,85.6c14.4,4.3,26.7-3.8,24.4-18c-6.6,0-13.2-0.1-19.8,0
	c-5.8,0.2-9.9,3.1-10.9,7.8C137.7,80.1,140.1,83.3,145,85.6z" />
	<path class="st1" d="M207.2,98.6c-1.1-1.1-2.1-2.2-2.1-3.3c-0.1-22-0.1-44-0.1-66.3c5.1,0,10.2,0,15.6,0c0,22.8,0,45.9,0,69.6
	C216.5,98.6,212.1,98.6,207.2,98.6z" />
	<path class="st1" d="M37.7,62.3c-5.5,6.2,1.9,9.5,2.7,14.2c0.2,1.1,1.2,2.1,2,3.3c-8.8,2.1-10.3,0.8-14.6-5.7
	c-3.9-5.9-2.6-9.8,0.9-15.2c6.2-9.4,11.3-19.5,16.8-29.3c0.3-0.6,0.4-1.3,0.8-1.8c2.1-2.4,18-1.4,19.7,1.3c1.4,2.2,2.7,4.6,4.5,7.5
	c-5,0-9.2,0.4-13.3-0.1c-4.2-0.5-6,1.5-7.8,4.9C45.9,48.4,41.9,55.1,37.7,62.3z" />
	<path class="st1" d="M252,52.6c10.5,0,20.4,0,30.7,0c0,5,0,9.7,0,14.7c-14.3,0-28.7,0-43.4,0c0-4.7,0-9.4,0-14.7
	C243.3,52.6,247.4,52.6,252,52.6z" />
	<path class="st1" d="M217,0.1c4.9,3.1,6.8,7.2,5.4,11.5c-1.7,5.3-4.7,7.2-10.7,6.9c-5-0.2-7.4-3.5-8.7-7.8C202,7,204.5,2,208.6,0.6
	C211.1-0.3,214,0,217,0.1z" />
	<path class="st1" d="M56.3,116.5c-0.3-0.4-0.3-0.9-0.3-1.6C56.2,115.2,56.4,115.8,56.3,116.5z" />
</svg>