<?xml version="1.0" encoding="utf-8"?>
<svg viewBox="0 0 24 24" xmlns="http://www.w3.org/2000/svg">
    <style type="text/css">
        .st0 {
            fill: #FFFFFF;
        }

        .st1 {
            fill: #818CF8;
        }
    </style>
    <!-- Money bag icon: budget/cost -->
    <path class="st0" d="M12,2C9,2,7,4,7,6l-3,4v10c0,1.1,0.9,2,2,2h12c1.1,0,2-0.9,2-2V10l-3-4C17,4,15,2,12,2z" />
    <circle class="st1" cx="12" cy="14" r="3.5" />
    <path class="st0"
        d="M12,11.5c-1.4,0-2.5,1.1-2.5,2.5s1.1,2.5,2.5,2.5s2.5-1.1,2.5-2.5S13.4,11.5,12,11.5z M12,15.5c-0.8,0-1.5-0.7-1.5-1.5s0.7-1.5,1.5-1.5s1.5,0.7,1.5,1.5S12.8,15.5,12,15.5z" />
</svg>